<svg width="37" height="38" viewBox="0 0 37 38" fill="none" xmlns="http://www.w3.org/2000/svg">
<path d="M4.875 0.5C2.6084 0.5 0.75 2.3584 0.75 4.625V26.625C0.75 28.8916 2.6084 30.75 4.875 30.75H9V37.4424L19.0439 30.75H32.375C34.6416 30.75 36.5 28.8916 36.5 26.625V4.625C36.5 2.3584 34.6416 0.5 32.375 0.5H4.875ZM4.875 3.25H32.375C33.1484 3.25 33.75 3.85156 33.75 4.625V26.625C33.75 27.3984 33.1484 28 32.375 28H18.2061L11.75 32.3076V28H4.875C4.10156 28 3.5 27.3984 3.5 26.625V4.625C3.5 3.85156 4.10156 3.25 4.875 3.25Z" fill="#101828"/>
</svg>
