<svg width="24" height="24" viewBox="0 0 24 24" fill="none" xmlns="http://www.w3.org/2000/svg">
<path d="M11.302 21.6133C11.5234 21.7424 11.6341 21.807 11.7903 21.8405C11.9116 21.8665 12.0884 21.8665 12.2097 21.8405C12.3659 21.807 12.4766 21.7424 12.698 21.6133C14.646 20.4768 20 16.9068 20 11.9984V7.21601C20 6.4165 20 6.01674 19.8692 5.67311C19.7537 5.36955 19.566 5.09868 19.3223 4.88394C19.0465 4.64084 18.6722 4.50048 17.9236 4.21975L12.5618 2.20908C12.3539 2.13112 12.25 2.09214 12.143 2.07669C12.0482 2.06298 11.9518 2.06298 11.857 2.07669C11.75 2.09214 11.6461 2.13112 11.4382 2.20908L6.0764 4.21975C5.3278 4.50048 4.9535 4.64084 4.67766 4.88394C4.43398 5.09868 4.24627 5.36955 4.13076 5.67311C4 6.01674 4 6.4165 4 7.21601V11.9984C4 16.9068 9.35396 20.4768 11.302 21.6133Z" stroke="#155EEF" stroke-width="2" stroke-linecap="round" stroke-linejoin="round"/>
</svg>
